<?xml version="1.0" standalone="no"?>
<!DOCTYPE svg PUBLIC "-//W3C//DTD SVG 20010904//EN"
 "http://www.w3.org/TR/2001/REC-SVG-20010904/DTD/svg10.dtd">
<svg version="1.0" xmlns="http://www.w3.org/2000/svg"
 width="880.000000pt" height="880.000000pt" viewBox="0 0 880.000000 880.000000"
 preserveAspectRatio="xMidYMid meet">
<metadata>
Created by potrace 1.11, written by Peter Selinger 2001-2013
</metadata>
<g transform="translate(0.000000,880.000000) scale(0.100000,-0.100000)"
fill="#000000" stroke="none">
<path d="M6247 8783 c-3 -3 -21 -7 -39 -9 -113 -12 -272 -76 -393 -157 -55
-37 -215 -186 -215 -201 0 -3 -8 -15 -17 -25 -33 -37 -46 -57 -92 -148 -28
-56 -42 -88 -46 -108 -2 -5 -9 -26 -18 -46 -13 -31 -22 -38 -73 -54 -33 -10
-65 -22 -71 -28 -7 -5 -13 -7 -13 -4 0 7 -37 -8 -136 -53 -35 -17 -69 -30 -73
-30 -5 0 -11 -3 -13 -7 -1 -5 -30 -21 -63 -37 -33 -17 -84 -45 -113 -63 -29
-18 -56 -33 -60 -33 -5 0 -17 -8 -28 -17 -11 -10 -52 -40 -93 -67 -40 -27 -79
-56 -86 -63 -8 -7 -18 -13 -24 -13 -6 0 -11 -3 -11 -7 0 -5 -23 -24 -50 -43
-27 -19 -50 -38 -50 -42 0 -5 -7 -8 -16 -8 -8 0 -13 -4 -10 -8 2 -4 -11 -18
-30 -31 -19 -13 -34 -27 -34 -32 0 -5 -4 -9 -10 -9 -5 0 -29 -18 -51 -40 -23
-22 -46 -40 -52 -40 -6 0 -8 -3 -5 -6 4 -3 -12 -22 -35 -42 -34 -31 -97 -95
-192 -196 -11 -11 -51 -57 -88 -101 -38 -44 -74 -84 -81 -90 -6 -5 -36 -43
-66 -82 -30 -40 -58 -73 -62 -73 -5 0 -8 -5 -8 -11 0 -8 -53 -83 -70 -99 -4
-3 -33 -43 -65 -90 -32 -47 -64 -88 -70 -92 -5 -4 -6 -8 -1 -8 5 0 1 -10 -10
-22 -29 -33 -224 -342 -224 -354 0 -3 -16 -30 -35 -60 -19 -30 -35 -57 -35
-59 0 -3 -23 -45 -50 -95 -28 -50 -51 -96 -53 -103 -1 -6 -5 -14 -8 -17 -11
-10 -199 -412 -199 -427 0 -3 -6 -19 -14 -36 -22 -51 -111 -287 -111 -297 0
-3 -5 -12 -10 -20 -5 -8 -10 -19 -11 -25 -1 -5 -19 -55 -39 -110 -21 -55 -38
-106 -38 -112 0 -7 -4 -13 -9 -13 -4 0 -7 -3 -7 -7 1 -5 0 -11 -1 -15 -1 -5
-3 -11 -5 -15 -2 -8 -6 -19 -28 -78 -7 -16 -11 -33 -9 -37 1 -5 -2 -8 -6 -8
-5 0 -9 -6 -9 -12 0 -13 -23 -73 -110 -298 -41 -107 -141 -329 -153 -340 -3
-3 -30 -43 -61 -90 -58 -87 -98 -137 -181 -224 -27 -27 -48 -53 -48 -58 0 -4
-3 -8 -7 -8 -5 0 -33 -24 -64 -53 -31 -28 -78 -71 -105 -95 -27 -23 -60 -53
-74 -65 -14 -13 -54 -48 -89 -78 -35 -30 -74 -63 -86 -74 -11 -11 -56 -51
-100 -90 -174 -154 -534 -507 -655 -641 -116 -130 -169 -190 -191 -219 -13
-16 -28 -35 -34 -41 -5 -7 -21 -26 -35 -44 -14 -18 -37 -47 -52 -65 -16 -18
-28 -37 -28 -43 0 -6 -4 -12 -9 -14 -12 -4 -151 -204 -151 -216 0 -6 -4 -12
-8 -14 -12 -5 -109 -170 -163 -279 -59 -119 -127 -287 -145 -359 -2 -8 -10
-40 -18 -70 -8 -30 -17 -71 -20 -90 -3 -19 -8 -46 -12 -60 -3 -14 -8 -94 -11
-178 -5 -125 -3 -152 8 -153 8 -1 28 -4 44 -6 47 -7 625 -10 625 -4 0 3 26 7
58 7 31 1 77 4 102 8 25 3 68 8 95 10 50 5 73 8 155 21 25 4 56 9 70 11 27 3
44 6 165 30 94 19 95 19 160 34 100 23 110 26 153 39 17 5 32 8 32 5 0 -3 8 0
18 5 11 6 30 12 43 15 28 5 275 83 304 96 11 5 49 19 85 31 36 12 71 27 77 32
7 5 13 6 13 1 0 -5 4 -4 8 1 4 6 24 16 45 23 20 8 67 27 102 43 36 16 68 30
72 31 25 4 387 196 488 257 66 41 132 80 146 87 15 8 32 21 39 29 7 8 16 15
20 15 12 0 90 53 90 61 0 3 14 12 30 19 17 7 30 16 30 21 0 5 4 9 10 9 11 0
183 121 188 132 2 5 8 8 13 8 5 0 17 6 26 14 10 8 56 43 103 77 47 34 87 65
90 69 3 4 10 9 16 11 6 2 26 16 45 31 245 193 395 312 399 317 3 4 30 26 60
51 30 25 68 57 85 72 16 14 41 36 55 48 97 83 130 112 189 167 58 55 92 79 77
55 -3 -5 -8 -24 -11 -42 -14 -80 -174 -532 -205 -580 -6 -8 -13 -22 -16 -30
-3 -8 -9 -24 -13 -35 -5 -11 -9 -24 -9 -29 0 -5 -4 -12 -9 -15 -4 -3 -26 -43
-48 -89 l-39 -82 -145 -88 c-80 -48 -153 -91 -162 -97 -10 -5 -59 -35 -109
-65 -50 -30 -99 -59 -108 -65 -10 -5 -77 -46 -150 -90 -74 -44 -149 -89 -168
-100 -44 -26 -44 -36 -3 -57 19 -9 39 -22 46 -27 7 -6 15 -11 19 -11 12 0 139
-64 142 -72 2 -5 8 -8 14 -8 14 0 302 -143 306 -152 2 -5 10 -8 17 -8 8 0 38
-13 67 -29 l53 -30 2 -376 c1 -208 3 -379 5 -381 2 -1 19 10 37 27 19 16 37
29 40 29 4 0 18 10 30 21 38 35 110 89 120 89 5 0 11 4 13 8 3 8 277 218 342
262 53 37 135 100 141 110 3 6 11 8 16 4 5 -3 22 -8 37 -10 15 -3 153 -37 307
-76 154 -38 287 -71 295 -73 8 -2 41 -10 72 -18 57 -15 57 -15 48 7 -15 39
-101 251 -109 271 -5 11 -13 31 -19 45 -5 14 -18 45 -27 70 -9 25 -22 59 -30
75 -7 17 -22 55 -34 85 -12 30 -26 64 -31 75 -49 108 -100 259 -94 278 4 12
27 63 53 112 25 50 46 92 46 95 0 3 22 50 49 105 26 55 75 165 108 245 32 80
63 154 68 165 4 11 13 34 18 50 6 17 14 39 18 50 4 11 8 23 9 28 2 4 4 9 5 12
1 3 4 10 5 15 1 6 3 11 5 13 1 1 3 9 5 17 2 8 10 35 18 60 14 41 45 153 52
190 2 8 8 33 13 55 6 22 13 56 16 75 3 19 8 46 10 60 14 73 17 88 21 120 14
119 18 195 18 360 0 102 -3 221 -5 265 l-5 80 61 42 c33 24 69 46 79 49 9 4
17 10 17 15 0 5 7 9 15 9 8 0 15 3 15 8 0 4 16 16 35 26 19 11 35 23 35 28 0
4 7 8 15 8 8 0 15 5 15 10 0 6 4 10 10 10 5 0 54 31 107 70 54 38 135 95 181
127 46 32 89 63 95 68 7 6 28 21 47 34 19 14 47 33 61 44 26 18 27 18 55 1 16
-10 31 -21 34 -25 10 -12 144 -93 158 -95 8 -2 23 -11 34 -21 11 -10 21 -17
22 -15 0 2 27 -8 59 -22 32 -15 64 -26 72 -26 7 0 17 -4 20 -10 3 -5 15 -10
26 -10 10 0 27 -5 37 -10 9 -6 55 -19 102 -31 47 -11 94 -22 105 -25 11 -2 38
-7 60 -10 22 -3 54 -7 70 -10 81 -12 183 -18 313 -19 78 0 142 -3 142 -7 0 -5
7 -8 15 -8 8 0 15 -4 15 -10 0 -5 7 -10 15 -10 8 0 15 -4 15 -8 0 -10 100 -58
112 -55 4 2 8 -2 8 -7 0 -5 3 -9 8 -8 4 1 34 -4 68 -11 74 -16 151 -10 217 17
16 7 31 12 33 12 12 0 95 63 132 100 101 99 195 292 228 465 2 11 6 31 9 45
22 116 22 267 0 380 -8 38 -49 147 -61 161 -8 8 -14 21 -14 27 0 6 -28 40 -62
74 -59 59 -134 104 -183 111 -11 1 -24 5 -30 9 -5 3 -39 4 -75 3 -159 -7 -300
-100 -421 -277 -22 -31 -39 -59 -39 -63 0 -3 -11 -22 -24 -43 -26 -41 -27 -41
-131 -28 -27 4 -58 9 -67 12 -9 3 -25 7 -35 9 -27 5 -134 41 -171 57 -32 14
-32 15 -15 34 10 11 28 27 40 35 100 68 444 410 558 555 17 21 39 48 50 60 11
12 27 32 35 45 8 12 23 29 33 38 9 8 17 21 17 27 0 7 4 14 9 16 19 7 159 227
209 328 9 19 22 38 27 42 6 4 6 8 1 8 -5 0 -2 8 7 18 8 9 16 20 16 25 0 4 10
29 21 55 33 72 103 250 106 265 1 4 3 9 4 12 1 3 4 10 5 15 1 6 4 12 5 15 1 3
3 8 5 13 1 4 5 14 8 22 21 51 94 336 113 440 3 14 7 33 10 43 3 10 7 32 9 50
2 18 6 47 9 65 13 72 17 96 21 141 3 25 7 62 10 81 2 19 7 75 10 124 3 49 8
93 11 97 2 4 0 10 -6 14 -7 4 -7 12 0 25 5 10 8 25 6 32 -3 7 -7 42 -10 78 -3
36 -7 72 -9 80 -33 139 -92 255 -176 350 -17 19 -31 38 -31 43 0 4 -5 7 -10 7
-6 0 -23 12 -39 28 -29 29 -38 35 -116 82 -51 31 -133 65 -182 76 -64 14 -132
24 -193 29 -104 9 -141 15 -153 22 -6 4 -7 1 -2 -7 6 -9 4 -11 -5 -5 -7 5 -27
9 -44 11 -101 8 -164 15 -186 19 -14 2 -61 7 -105 10 -44 3 -100 9 -125 12
-25 3 -58 6 -75 8 -16 1 -36 3 -42 4 -7 0 -22 20 -34 44 -56 109 -161 235
-256 308 -32 24 -59 47 -61 52 -2 4 -8 7 -13 7 -5 0 -30 13 -56 29 -53 32
-223 104 -231 97 -2 -3 -15 -1 -29 5 -13 5 -41 12 -61 15 -49 8 -289 14 -295
7z"/>
</g>
</svg>
