<svg xmlns="http://www.w3.org/2000/svg" width="54.511" height="54.403" viewBox="0 0 54.511 54.403">
  <g id="Group_2" data-name="Group 2" transform="translate(-195 -16.597)">
    <g id="tadpole" transform="translate(194 15.597)">
      <path id="Path_1" data-name="Path 1" d="M33.958,40.905a6.768,6.768,0,0,0-1.694-3.589c0-2.194,1.711-3.694,3.422-4.528,0,0,0,.009.009,0a3.154,3.154,0,0,0,.956.14,3.471,3.471,0,0,0,1.816-.509c.132.825.456,2.94.649,4.914.1.965.167,1.887.167,2.615,0,4.387-1.755,7.9-3.51,11.407l1.755,4.387-3.51-.877L30.51,57.5v-3.51L27,52.233,31.387,49.6c.877-1.755,2.632-5.265,2.632-7.9A4.749,4.749,0,0,0,33.958,40.905Z" transform="translate(-3.186 -3.85)" fill="#a0d468"/>
      <path id="Path_2" data-name="Path 2" d="M53.629,26.182c-1.755,0-2.632,2.632-2.632,2.632a6.786,6.786,0,0,1-4.765-1.571l.377-.184a24.253,24.253,0,0,0,5.265-5.265,17.575,17.575,0,0,0,2.738-6.037,22.161,22.161,0,0,0,.772-5.37,3.883,3.883,0,0,0-3.492-3.861L46.609,6l-.272.1a5.174,5.174,0,0,1,.272,1.658,5.265,5.265,0,1,1-10.53,0,4.7,4.7,0,0,1,.079-.869l-.079-.009c-4.563,1.141-8.748,5.247-11.846,9.907a4.831,4.831,0,0,1,2.194,4.133A4.389,4.389,0,0,1,22.04,25.3a4.335,4.335,0,0,1-1.755-.369l-.167-.061c-2.466,6.607-2.527,7.511-5.1,10.082-.649.649-2.518,2.159-4.607,4.15l.219.237L13.265,41.1l.175.167a46.429,46.429,0,0,0-4.888,5.976L8,48.119,8.728,48a19,19,0,0,0,3.545-1.053,47.1,47.1,0,0,0,6.879-3.457,52.507,52.507,0,0,0,5.73-3.931,39.705,39.705,0,0,0,3.3-2.843l2.632,1.755.07.061a9.734,9.734,0,0,0,.746-.86,6.768,6.768,0,0,0-1.694-3.589c0-2.194,1.711-3.694,3.422-4.528l2.782-.377v.009c.132.825.456,2.94.649,4.914l.167-.018s4.475-2.983,5.862-4.142C45.96,32.956,51,32.324,51,32.324a3.064,3.064,0,0,0,1.755.877c1.755,0,2.632-2.632,2.632-4.387s-.877-2.632-1.755-2.632Z" transform="translate(-0.858 -0.613)" fill="#b4dd7f"/>
      <circle id="Ellipse_1" data-name="Ellipse 1" cx="3.5" cy="3.5" r="3.5" transform="translate(30 22.403)" fill="#8cc152"/>
      <path id="Path_3" data-name="Path 3" d="M30.079,42.755,27.447,41a39.706,39.706,0,0,1-3.3,2.843,52.507,52.507,0,0,1-5.73,3.931,47.1,47.1,0,0,1-6.879,3.457,19,19,0,0,1-3.545,1.053c-.246.053-.491.088-.728.123.175-.29.36-.588.553-.877a46.429,46.429,0,0,1,4.888-5.976l-.175-.167L9.9,43.632,9.678,43.4a31.581,31.581,0,0,0-6.5,8.134A9.929,9.929,0,0,0,2,55.917a25.912,25.912,0,0,0,5.317-.246,30.815,30.815,0,0,0,5.309-1.193,28.683,28.683,0,0,0,5.107-2.167,27.915,27.915,0,0,0,2.694-1.658c2.562-1.79,4.528-3.282,6.019-4.51a38.134,38.134,0,0,0,3.7-3.326Z" transform="translate(-0.123 -4.901)" fill="#a0d468"/>
      <path id="Path_4" data-name="Path 4" d="M50.258,5.606a5.174,5.174,0,0,1,.272,1.658,5.265,5.265,0,1,1-10.53,0,4.7,4.7,0,0,1,.079-.869,5.258,5.258,0,0,1,10.179-.79Z" transform="translate(-4.778 -0.123)" fill="#fff"/>
      <circle id="Ellipse_2" data-name="Ellipse 2" cx="1.5" cy="1.5" r="1.5" transform="translate(39 5.403)" fill="#fff"/>
      <circle id="Ellipse_3" data-name="Ellipse 3" cx="2.5" cy="2.5" r="2.5" transform="translate(28 14.403)" fill="#8cc152"/>
      <path id="Path_5" data-name="Path 5" d="M25.925,18.29a4.831,4.831,0,0,1,2.194,4.133,4.389,4.389,0,0,1-4.387,4.387,4.335,4.335,0,0,1-1.755-.369l-.167-.061c.053-.14.105-.3.167-.448A38.246,38.246,0,0,1,25.925,18.29Z" transform="translate(-2.55 -2.118)" fill="#8cc152"/>
      <path id="Path_6" data-name="Path 6" d="M45.632,10.265A2.632,2.632,0,1,0,43,7.632,2.636,2.636,0,0,0,45.632,10.265Zm0-3.51a.877.877,0,1,1-.877.877A.878.878,0,0,1,45.632,6.755Z" transform="translate(-5.146 -0.49)"/>
      <path id="Path_7" data-name="Path 7" d="M37.387,24A4.543,4.543,0,0,0,33,28.387h1.755c0-.346.491-2.632,2.632-2.632s2.632,2.287,2.632,2.632h1.755A4.543,4.543,0,0,0,37.387,24Z" transform="translate(-3.921 -2.818)"/>
      <path id="Path_8" data-name="Path 8" d="M34.51,16.755a1.755,1.755,0,0,1,0,3.51V22.02A3.51,3.51,0,1,0,31,18.51h1.755A1.757,1.757,0,0,1,34.51,16.755Z" transform="translate(-3.676 -1.715)"/>
      <path id="Path_9" data-name="Path 9" d="M52.771,24.692c-1.758,0-2.777,1.665-3.217,2.616a6.337,6.337,0,0,1-2.61-.654,26.765,26.765,0,0,0,4.773-4.946C54.633,17.821,55.4,12.2,55.4,9.775A4.744,4.744,0,0,0,51.12,5.042l-5.081-.508A6.132,6.132,0,0,0,34.56,5.554C27.459,7.62,21.335,16.224,18.6,23.505c-.426,1.136-.784,2.112-1.093,2.961-1.61,4.4-1.9,5.187-3.97,7.258-.247.246-.713.653-1.3,1.167C8.589,38.064,1,44.668,1,51.016v.8l.8.073c.089.008.611.052,1.466.052a31.307,31.307,0,0,0,17.543-5.471,78.078,78.078,0,0,0,8.953-7.058,26.477,26.477,0,0,1-2.229,5.718l-5.539,3.324,4.454,2.226V55.4l4.58-3.434L35.8,53.161l-2.246-5.614c1.714-3.434,3.426-7.006,3.426-11.448,0-.6-.044-1.325-.111-2.089.914-.612,3.556-2.4,5.064-3.541,2.851,2.272,6.666,2.238,7.914,2.151a3.5,3.5,0,0,0,2.051.848c2.395,0,3.51-3.141,3.51-5.265,0-2.3-1.324-3.51-2.632-3.51ZM40.486,2.755A4.387,4.387,0,1,1,36.1,7.142,4.392,4.392,0,0,1,40.486,2.755ZM23.577,17.474A4.069,4.069,0,0,1,24.692,20.3a3.493,3.493,0,0,1-4.283,3.42,37.287,37.287,0,0,1,3.168-6.25ZM16.705,32.707l1.529,1.019a17.6,17.6,0,0,1-2.083,2.352l-1.492-.994c.041-.039.089-.083.124-.118A14.666,14.666,0,0,0,16.705,32.707Zm-3.4,3.582L14.818,37.3l-.276.24c-.553.481-1.265,1.155-2.049,1.951L10.906,38.43c.906-.838,1.738-1.567,2.4-2.142ZM9.6,39.671l1.661,1.107c-.681.737-1.38,1.536-2.06,2.367L7.42,41.956C8.136,41.151,8.876,40.384,9.6,39.671Zm5.7,5.862,1.03,1.545a28.486,28.486,0,0,1-3.269,1.379l-.542-1.626C13.4,46.464,14.324,46.034,15.3,45.534Zm-4.418,1.932.507,1.522A31.162,31.162,0,0,1,8.3,49.7l.317-1.582A20.5,20.5,0,0,0,10.884,47.466ZM4.548,45.751a24.032,24.032,0,0,1,1.731-2.446L8.115,44.53c-.305.405-.6.813-.881,1.221ZM2.809,50.175a9.557,9.557,0,0,1,.806-2.669h2.5l-.672,1.116,1.315-.179-.307,1.536a27.512,27.512,0,0,1-3.645.2ZM19.8,45.033c-.634.444-1.276.839-1.917,1.211L16.858,44.7c.608-.335,1.232-.69,1.88-1.073.368-.218.713-.435,1.061-.654l1.2,1.2C20.614,44.458,20.222,44.738,19.8,45.033Zm4.151-4.922,1.061,1.061q-1.123.89-2.575,1.964L21.306,42C22.285,41.345,23.17,40.707,23.953,40.111Zm1.39-1.092c.935-.763,1.641-1.393,2.079-1.8l1.234.822c-.55.528-1.3,1.2-2.274,2.016ZM31.8,47.114l-.176.352,1.264,3.161-2.249-.563-2.44,1.83V49.6l-2.566-1.283,3.236-1.941.114-.229c.952-1.9,2.725-5.45,2.725-8.289a7.576,7.576,0,0,0-1.739-4.7c.23-2.27,2.912-3.621,4.515-3.978a58.479,58.479,0,0,1,.734,6.923C35.222,40.279,33.561,43.6,31.8,47.114Zm20.09-15.4a2.178,2.178,0,0,1-1.135-.62l-.3-.3-.424.053c-.065.008-6.442.727-8.76-3.909l-1.57.785a8.275,8.275,0,0,0,.972,1.5c-1.03.767-2.646,1.887-4.017,2.815-.247-2.025-.548-3.849-.569-3.977l-.124-.734h-.743c-1.933,0-7.02,1.888-7.02,6.142v.363l.257.257A6.023,6.023,0,0,1,29.813,36.7l-2.6-1.734-.509.509a49.411,49.411,0,0,1-8.859,6.642,38.2,38.2,0,0,1-8.791,4.087,50.037,50.037,0,0,1,6.638-7.346c.692-.6,1.192-1.037,1.571-1.415a15.64,15.64,0,0,0,2.929-3.553l.395-.707-3.031-2.021c.471-1.01.933-2.267,1.6-4.1.188-.513.4-1.081.623-1.7a5.214,5.214,0,0,0,1.4.2A5.27,5.27,0,0,0,26.447,20.3a5.793,5.793,0,0,0-1.883-4.323c2.737-3.914,6.191-7.213,9.8-8.527a6.138,6.138,0,0,0,12.269-.312,6.02,6.02,0,0,0-.057-.791l4.374.437a2.991,2.991,0,0,1,2.7,2.986c0,2.587-.888,7.619-3.334,10.881a24.781,24.781,0,0,1-4.781,4.868,9.172,9.172,0,0,1-1.3-2.269c-.115-.256-.223-.495-.33-.711l-1.57.785c.1.195.194.412.3.642.856,1.91,2.287,5.108,7.507,5.108h.633l.2-.6c.142-.429.868-2.032,1.8-2.032.425,0,.877.615.877,1.755C53.648,29.792,52.865,31.712,51.894,31.712Z" transform="translate(0)"/>
    </g>
    <path id="Path_10" data-name="Path 10" d="M193.622,54.963c-6.281,1.994-6.263-2.77-6.263-2.77" transform="translate(53.718 74.377) rotate(-30)" fill="none" stroke="#000" stroke-width="1"/>
  </g>
</svg>
